<?xml version="1.0" encoding="utf-8"?>
<!-- Generator: Adobe Illustrator 23.0.0, SVG Export Plug-In . SVG Version: 6.00 Build 0)  -->
<svg class="immo_logo  grey-text text-darken-3" version="1.1" id="Layer_1" xmlns="http://www.w3.org/2000/svg" xmlns:xlink="http://www.w3.org/1999/xlink" x="0px" y="0px"
	 viewBox="0 0 378 81" style="enable-background:new 0 0 378 81;" xml:space="preserve">
<style type="text/css">
	.st0{fill-rule:evenodd;clip-rule:evenodd;}
</style>
<path class="st0" d="M73,16c1.46,12.73,5.6,25.35,6,40c-5.03-0.37-6.63,0.28-12,1c-0.67-7-1.33-14-2-21c-0.33,0-0.67,0-1,0
	c0,0.33,0,0.67,0,1c-2.95,4.38-2.14,11.61-2,20c-2.24,0.78-5.43,1.02-9,1c0-0.33,0-0.67,0-1c-0.33,0-0.67,0-1,0
	c-0.26-6.21-2.7-17-6-21c0,7.67,0,15.33,0,23c-3.67,0-7.33,0-11,0c-2.08-6.16-1.08-17.14-1-25c-0.95-1.54,0.31-11.72,1-15
	c2.67,0,5.33,0,8,0c1.55-1.05,4.09-1.03,7-1c0,0.33,0,0.67,0,1c0.33,0,0.67,0,1,0c0.56,5.19,2.22,11.26,4,16c0.33,0,0.67,0,1,0
	c-0.2-5.88-0.45-13.47,2-17c2.15-1.44,7.31-1.11,11-1C70.18,16.2,70.68,16.23,73,16z"/>
<path class="st0" d="M329,16c0.11,4.57,0.08,9.9-1,13c-2.55-0.45-10.5-0.04-16,0c-0.22,4.11-0.27,2.88,0,7c5.24-0.16,8.41-1.1,12,0
	c-0.78,2.24-1.02,5.43-1,9c-4,0-8,0-12,0c-0.63,1.75-0.19,0.97-1,2c0.51,3.97,1.24,12.97,0,17c-3.13-1.08-8.41-1.06-13-1
	c0.26-12.39,2.36-28.83,0-41c2.54-1.37,3.5-1.92,8-2C310.27,16.47,320.78,15.99,329,16z"/>
<path class="st0" d="M332,28c0.67-3.33,1.33-6.67,2-10c1.52-0.54,1.69-0.67,4-1c7.21,4.42,29.78,2.89,32,11c-1,3-2,6-3,9
	c-0.67,0-1.33,0-2,0c-2.3-1.64-6.89-2.36-10-3c0,0.67,0,1.33,0,2c-3.79,5.75-5.47,29.35-10,32c-3.1-2.86-9-4.18-13-6
	c4.21-11.03,7.42-24.79,11-32c-1.33,0-2.67,0-4,0C337.25,28.72,334.78,28.32,332,28z"/>
<path class="st0" d="M125,63c-5.13-0.76-5.09-1.04-12-1c-0.04-9.33,0.5-13.15,2-21c-0.67,0-1.33,0-2,0c0,0.67,0,1.33,0,2
	c-3.37,4.42-2.72,12.25-6,17c-1.18,0.8-1.68,0.77-4,1c-0.86-0.65-3.14-1.34-4-2c-3.83-6.51,0.12-17.76-3-22
	c-1.33,7.33-2.67,14.67-4,22c-3.58-0.3-8.64-1.2-11-3c-0.75-1.07-0.6-0.95-1-3c3-11.67,6-23.33,9-35c2,0,4,0,6,0
	c1.9,1.23,7.64,1.57,10,2c0,4,0,8,0,12c0.59,0.96,0.11,1.91,0,5c0.67,0,1.33,0,2,0c0.1-6.85,2.29-15.35,9-16c2.9,1.99,7.07,1.02,9,2
	c3.32,2.06,2.25,11.74,2,17C124.84,43.54,125.08,57.36,125,63z"/>
<path class="st0" d="M31,24c-0.77-4.93-3.58-6.93-7-9c0-0.33,0-0.67,0-1c-0.33,0-0.67,0-1,0c-1.99,3.05-4.8,5.18-8,7
	c1.15,1.93,2.23,3.66,4,5c-1.69,2.69-3.78,6.66-6,9c0,0.67,0,1.33,0,2c2.32-0.74,2.23-1.04,4-2c1.27,4.95-1.51,13.31-2,20
	c-2.53,0.11-3.71,0.12-5,1c-0.33,0-0.67,0-1,0c3.6,2.87,9.98,2.43,14,5c2.53-0.11,3.71-0.12,5-1c0.33,0,0.67,0,1,0
	c-1.15-3.39-3.26-5.29-6-7C22.93,42.77,24.89,28.36,31,24z M24,25c-4.37-2.01-3.26-2.9-2-6c2.32,0.74,2.23,1.04,4,2
	C25.26,23.32,24.96,23.23,24,25z"/>
<path class="st0" d="M206,57c0.33,5.67,0.67,11.33,1,17c-21.29,0.65-39.76-10.72-31-35c3.24-8.98,10.62-13.14,17-19
	c7.94-0.72,13.71-0.62,20,2c-0.83,4.7-2.3,12.67-5,16c-3.1-2.91-9.89-1.67-12-3c-4.96,4.46-7.77,10.53-6,19
	C195.23,57.17,198.29,58.02,206,57z"/>
<path class="st0" d="M159,21c-2.23-1.62-6.26-2-10-2c-1.17,0.81-1.67,0.8-4,1c-4.43,4.21-10.13,6.15-12,13
	c-8.99,13.5,9.11,29.91,17,32c5.88,1.56,10.4-2.15,15-3C170.59,49.79,177.6,25.7,159,21z M158,49c-2.81,0.64-6.44,1.76-9,0
	c-3.84-1.4-3.61-3.44-6-6c0.26-5.98,1.77-6.55,4-10c2.32-0.23,2.82-0.2,4-1c2.6,0.66,5.19,1.52,7,3c2.99,2-0.31,1.96,3,3
	C160.95,44.09,159.84,45.34,158,49z"/>
<path class="st0" d="M282,20c-5.67,0.67-11.33,1.33-17,2c-1.86,12.12-7.54,25.32-8,39c2.86,0.29,8.86,0.6,11,2c0.67,0,1.33,0,2,0
	c0.08-6.25,0.06-6.75,0-13c3.57-0.02,6.76,0.22,9,1c0,4,0,8,0,12c4.64-0.14,11.01-1.09,13,0c0.33,0,0.67,0,1,0
	C290.82,47.26,283.65,34.14,282,20z M278,45c-2.33,0-4.67,0-7,0c0.01-4.24,0.22-8.47,2-11c0-0.67,0-1.33,0-2c3.35,4.3,1.5,7.19,5,11
	C278,43.67,278,44.33,278,45z"/>
<path class="st0" d="M243,44c4.73-9.4,5.27-10.89-1-19c-13.18,0.05-18.87,4.29-27,9c2,11,4,22,6,33c0,0.67,0,1.33,0,2
	c4.59-2.18,9.76-4.79,15-6c-1.33-3.67-2.67-7.33-4-11c1.08-0.92,0.09,0.08,1-1c8.1,0.21,9.84,6.37,11,13c1,0,2,0,3,0
	c1-4.31,4.95-6.89,9-8C254.21,49.9,251.05,44.25,243,44z M232,45c-4.07-1-4.3-3.01-5-7c0.91-0.93,1.35-1.74,2-3c2.33,0,4.67,0,7,0
	c0,0.33,0,0.67,0,1c0.33,0,0.67,0,1,0C236.71,42.31,235.03,41.92,232,45z"/>
</svg>
