<?xml version="1.0" standalone="no"?>
<!DOCTYPE svg PUBLIC "-//W3C//DTD SVG 20010904//EN"
 "http://www.w3.org/TR/2001/REC-SVG-20010904/DTD/svg10.dtd">
<svg version="1.0" xmlns="http://www.w3.org/2000/svg"
 width="1385.000000pt" height="1385.000000pt" viewBox="0 0 1385.000000 1385.000000"
 preserveAspectRatio="xMidYMid meet">
<metadata>
Created by potrace 1.11, written by Peter Selinger 2001-2013
</metadata>
<g transform="translate(0.000000,1385.000000) scale(0.100000,-0.100000)"
fill="#000000" stroke="none">
<path d="M6584 13240 c-12 -5 -67 -66 -123 -137 -56 -70 -107 -135 -114 -143
-7 -8 -28 -35 -47 -60 -19 -25 -42 -54 -52 -65 -9 -11 -60 -76 -114 -145 -54
-69 -102 -126 -106 -128 -5 -2 -8 -10 -8 -18 0 -8 -4 -14 -8 -14 -4 0 -26 -24
-47 -52 -22 -29 -117 -150 -210 -268 -152 -191 -365 -461 -538 -680 -32 -41
-67 -85 -78 -97 -21 -25 -27 -65 -14 -103 7 -23 71 -119 86 -130 4 -3 70 -84
147 -180 137 -172 139 -175 123 -199 -14 -23 -16 -412 -16 -4403 0 -2408 -3
-4378 -6 -4378 -4 0 -40 -15 -81 -34 -40 -19 -147 -68 -238 -109 -91 -41 -194
-88 -230 -105 -36 -16 -87 -39 -115 -52 -98 -44 -261 -119 -348 -159 -49 -23
-90 -41 -92 -41 -2 0 -45 -20 -97 -44 -51 -24 -115 -53 -143 -66 -27 -12 -73
-33 -102 -46 -70 -31 -82 -56 -79 -167 3 -107 7 -112 156 -201 240 -143 573
-291 749 -331 107 -25 219 -46 276 -50 39 -4 88 -8 110 -10 309 -28 1483 -28
1810 0 28 3 102 7 165 10 63 4 133 8 155 10 165 12 245 18 275 20 19 1 69 5
110 9 41 4 98 9 125 12 28 2 64 6 80 9 17 2 66 7 110 11 44 3 82 7 85 9 3 1
39 6 80 9 41 4 89 9 105 12 17 3 46 6 65 8 85 9 156 18 170 22 8 2 35 6 60 9
25 3 56 7 70 10 30 6 70 12 130 20 173 24 203 39 216 109 10 59 -27 94 -224
206 -98 57 -98 57 108 54 167 -1 309 -11 361 -25 81 -21 137 9 145 76 6 50
-10 81 -61 117 -97 68 -333 163 -505 203 -8 2 -53 12 -100 23 -86 21 -324 68
-389 78 -20 3 -61 9 -91 14 -30 5 -77 12 -105 15 -27 3 -61 8 -75 10 -28 5
-96 13 -155 19 -45 5 -135 15 -180 21 -16 2 -46 4 -65 4 l-35 1 -1 78 c-1 72
-11 459 -19 742 -2 69 -6 222 -9 340 -3 118 -8 292 -11 385 -3 94 -7 265 -10
380 -3 116 -8 293 -10 395 -3 102 -8 268 -10 370 -3 102 -7 268 -10 370 -3
102 -7 271 -10 375 -3 105 -7 278 -10 385 -3 107 -7 274 -10 370 -3 96 -7 265
-10 375 -10 381 -15 601 -20 775 -3 96 -7 267 -10 380 -3 113 -7 266 -10 340
-2 74 -7 254 -11 400 -3 146 -7 301 -8 346 l-2 81 95 -60 c53 -33 106 -65 118
-71 13 -6 23 -14 23 -18 0 -5 7 -8 15 -8 8 0 15 -4 15 -10 0 -5 5 -10 10 -10
6 0 41 -20 79 -45 38 -25 73 -45 79 -45 6 0 12 -3 14 -8 4 -9 136 -92 148 -92
4 0 10 -3 12 -8 2 -6 368 -239 436 -277 9 -5 150 -93 312 -195 162 -102 303
-189 313 -195 18 -10 280 -173 327 -204 48 -31 65 -41 114 -65 46 -23 52 -24
84 -10 43 17 59 38 67 85 6 34 1 167 -10 284 -14 144 -17 176 -26 240 -5 39
-12 88 -15 110 -7 63 -42 251 -65 350 -132 583 -308 969 -607 1330 -14 17
-226 218 -258 245 -180 151 -332 276 -394 323 -41 31 -79 60 -85 64 -60 48
-265 193 -273 193 -6 0 -12 3 -14 8 -1 4 -21 19 -43 33 -100 65 -155 99 -217
134 -57 33 -65 41 -55 55 7 9 110 139 231 289 237 297 249 319 211 378 -14 21
-258 332 -402 513 -6 8 -33 43 -60 76 -85 108 -230 292 -256 324 -7 8 -104
132 -216 275 -113 143 -216 274 -230 291 -48 58 -64 77 -95 118 -90 118 -160
203 -178 216 -22 18 -73 23 -104 10z m183 -961 c65 -88 125 -170 133 -182 8
-12 52 -71 97 -132 44 -60 124 -168 177 -240 52 -71 103 -139 111 -150 9 -11
22 -29 30 -40 8 -11 36 -50 63 -86 27 -36 51 -70 55 -76 5 -8 -61 -114 -83
-133 -6 -5 -676 -901 -702 -938 -15 -22 -16 -21 -85 70 -38 51 -114 154 -168
228 -55 74 -103 140 -107 145 -4 6 -27 37 -51 70 -69 96 -197 269 -210 285 -7
9 -28 38 -47 65 -35 52 -91 126 -101 135 -3 3 -14 19 -23 36 l-18 30 63 88
c35 48 71 97 79 109 8 12 40 57 72 100 32 43 58 82 58 87 0 6 5 10 10 10 6 0
10 4 10 9 0 5 9 20 20 33 11 12 74 100 141 193 67 94 140 195 162 225 66 89
100 136 137 189 26 36 38 47 47 39 7 -5 65 -82 130 -169z"/>
</g>
</svg>
